<mxfile host="Electron" agent="Mozilla/5.0 (Windows NT 10.0; Win64; x64) AppleWebKit/537.36 (KHTML, like Gecko) draw.io/26.0.16 Chrome/132.0.6834.196 Electron/34.2.0 Safari/537.36" version="26.0.16">
  <diagram name="Page-1" id="YqvuZU1qee51eaF9YIpm">
    <mxGraphModel dx="548" dy="1721" grid="1" gridSize="10" guides="1" tooltips="1" connect="1" arrows="1" fold="1" page="1" pageScale="1" pageWidth="850" pageHeight="1100" math="0" shadow="0">
      <root>
        <mxCell id="0" />
        <mxCell id="1" parent="0" />
        <mxCell id="rZ0ERCzyULRFONIbK_t7-1" value="CLAN" style="whiteSpace=wrap;html=1;align=center;" vertex="1" parent="1">
          <mxGeometry x="210" y="120" width="100" height="40" as="geometry" />
        </mxCell>
        <mxCell id="rZ0ERCzyULRFONIbK_t7-3" value="IZDAVAC" style="whiteSpace=wrap;html=1;align=center;" vertex="1" parent="1">
          <mxGeometry x="560" y="320" width="100" height="40" as="geometry" />
        </mxCell>
        <mxCell id="rZ0ERCzyULRFONIbK_t7-5" value="AUTOR" style="whiteSpace=wrap;html=1;align=center;" vertex="1" parent="1">
          <mxGeometry x="560" y="-50" width="100" height="40" as="geometry" />
        </mxCell>
        <mxCell id="rZ0ERCzyULRFONIbK_t7-6" value="KATEGORIJA" style="whiteSpace=wrap;html=1;align=center;" vertex="1" parent="1">
          <mxGeometry x="840" y="125" width="100" height="40" as="geometry" />
        </mxCell>
        <mxCell id="rZ0ERCzyULRFONIbK_t7-8" value="ima" style="shape=rhombus;perimeter=rhombusPerimeter;whiteSpace=wrap;html=1;align=center;" vertex="1" parent="1">
          <mxGeometry x="590" y="230" width="40" height="30" as="geometry" />
        </mxCell>
        <mxCell id="rZ0ERCzyULRFONIbK_t7-9" value="" style="endArrow=none;html=1;rounded=0;exitX=0.5;exitY=1;exitDx=0;exitDy=0;entryX=0.5;entryY=0;entryDx=0;entryDy=0;" edge="1" parent="1" source="rZ0ERCzyULRFONIbK_t7-23" target="rZ0ERCzyULRFONIbK_t7-8">
          <mxGeometry relative="1" as="geometry">
            <mxPoint x="610" y="160" as="sourcePoint" />
            <mxPoint x="660" y="170" as="targetPoint" />
          </mxGeometry>
        </mxCell>
        <mxCell id="rZ0ERCzyULRFONIbK_t7-10" value="" style="endArrow=none;html=1;rounded=0;exitX=0.5;exitY=0;exitDx=0;exitDy=0;entryX=0.5;entryY=1;entryDx=0;entryDy=0;" edge="1" parent="1" source="rZ0ERCzyULRFONIbK_t7-3" target="rZ0ERCzyULRFONIbK_t7-8">
          <mxGeometry relative="1" as="geometry">
            <mxPoint x="500" y="170" as="sourcePoint" />
            <mxPoint x="660" y="170" as="targetPoint" />
          </mxGeometry>
        </mxCell>
        <mxCell id="rZ0ERCzyULRFONIbK_t7-11" value="(0,n)" style="text;html=1;align=center;verticalAlign=middle;resizable=0;points=[];autosize=1;strokeColor=none;fillColor=none;" vertex="1" parent="1">
          <mxGeometry x="600" y="290" width="50" height="30" as="geometry" />
        </mxCell>
        <mxCell id="rZ0ERCzyULRFONIbK_t7-12" value="(1,1)" style="text;html=1;align=center;verticalAlign=middle;resizable=0;points=[];autosize=1;strokeColor=none;fillColor=none;" vertex="1" parent="1">
          <mxGeometry x="600" y="160" width="50" height="30" as="geometry" />
        </mxCell>
        <mxCell id="rZ0ERCzyULRFONIbK_t7-13" value="pise" style="shape=rhombus;perimeter=rhombusPerimeter;whiteSpace=wrap;html=1;align=center;" vertex="1" parent="1">
          <mxGeometry x="590" y="40" width="40" height="30" as="geometry" />
        </mxCell>
        <mxCell id="rZ0ERCzyULRFONIbK_t7-14" value="" style="endArrow=none;html=1;rounded=0;exitX=0.5;exitY=1;exitDx=0;exitDy=0;entryX=0.5;entryY=0;entryDx=0;entryDy=0;" edge="1" parent="1" source="rZ0ERCzyULRFONIbK_t7-13" target="rZ0ERCzyULRFONIbK_t7-23">
          <mxGeometry relative="1" as="geometry">
            <mxPoint x="400" y="170" as="sourcePoint" />
            <mxPoint x="610" y="120" as="targetPoint" />
          </mxGeometry>
        </mxCell>
        <mxCell id="rZ0ERCzyULRFONIbK_t7-15" value="" style="endArrow=none;html=1;rounded=0;exitX=0.5;exitY=1;exitDx=0;exitDy=0;entryX=0.5;entryY=0;entryDx=0;entryDy=0;" edge="1" parent="1" source="rZ0ERCzyULRFONIbK_t7-5" target="rZ0ERCzyULRFONIbK_t7-13">
          <mxGeometry relative="1" as="geometry">
            <mxPoint x="400" y="170" as="sourcePoint" />
            <mxPoint x="560" y="170" as="targetPoint" />
          </mxGeometry>
        </mxCell>
        <mxCell id="rZ0ERCzyULRFONIbK_t7-16" value="(1,n)" style="text;html=1;align=center;verticalAlign=middle;resizable=0;points=[];autosize=1;strokeColor=none;fillColor=none;" vertex="1" parent="1">
          <mxGeometry x="595" y="-12" width="50" height="30" as="geometry" />
        </mxCell>
        <mxCell id="rZ0ERCzyULRFONIbK_t7-17" value="(0,n)" style="text;html=1;align=center;verticalAlign=middle;resizable=0;points=[];autosize=1;strokeColor=none;fillColor=none;" vertex="1" parent="1">
          <mxGeometry x="600" y="90" width="50" height="30" as="geometry" />
        </mxCell>
        <mxCell id="rZ0ERCzyULRFONIbK_t7-18" value="pripada" style="shape=rhombus;perimeter=rhombusPerimeter;whiteSpace=wrap;html=1;align=center;" vertex="1" parent="1">
          <mxGeometry x="720" y="130" width="40" height="30" as="geometry" />
        </mxCell>
        <mxCell id="rZ0ERCzyULRFONIbK_t7-19" value="" style="endArrow=none;html=1;rounded=0;exitX=1;exitY=0.5;exitDx=0;exitDy=0;" edge="1" parent="1" source="rZ0ERCzyULRFONIbK_t7-18">
          <mxGeometry relative="1" as="geometry">
            <mxPoint x="540" y="50" as="sourcePoint" />
            <mxPoint x="840" y="140" as="targetPoint" />
          </mxGeometry>
        </mxCell>
        <mxCell id="rZ0ERCzyULRFONIbK_t7-20" value="" style="endArrow=none;html=1;rounded=0;exitX=1;exitY=0.5;exitDx=0;exitDy=0;" edge="1" parent="1" source="rZ0ERCzyULRFONIbK_t7-23">
          <mxGeometry relative="1" as="geometry">
            <mxPoint x="660" y="140" as="sourcePoint" />
            <mxPoint x="720" y="146" as="targetPoint" />
          </mxGeometry>
        </mxCell>
        <mxCell id="rZ0ERCzyULRFONIbK_t7-21" value="(1,n)" style="text;html=1;align=center;verticalAlign=middle;resizable=0;points=[];autosize=1;strokeColor=none;fillColor=none;" vertex="1" parent="1">
          <mxGeometry x="645" y="108" width="50" height="30" as="geometry" />
        </mxCell>
        <mxCell id="rZ0ERCzyULRFONIbK_t7-22" value="(0,n)" style="text;html=1;align=center;verticalAlign=middle;resizable=0;points=[];autosize=1;strokeColor=none;fillColor=none;" vertex="1" parent="1">
          <mxGeometry x="800" y="110" width="50" height="30" as="geometry" />
        </mxCell>
        <mxCell id="rZ0ERCzyULRFONIbK_t7-23" value="KNJIGA" style="whiteSpace=wrap;html=1;align=center;" vertex="1" parent="1">
          <mxGeometry x="560" y="120" width="100" height="40" as="geometry" />
        </mxCell>
        <mxCell id="rZ0ERCzyULRFONIbK_t7-25" value="" style="endArrow=none;html=1;rounded=0;exitX=1;exitY=0.5;exitDx=0;exitDy=0;" edge="1" parent="1" source="rZ0ERCzyULRFONIbK_t7-29" target="rZ0ERCzyULRFONIbK_t7-23">
          <mxGeometry relative="1" as="geometry">
            <mxPoint x="458" y="139" as="sourcePoint" />
            <mxPoint x="530" y="50" as="targetPoint" />
          </mxGeometry>
        </mxCell>
        <mxCell id="rZ0ERCzyULRFONIbK_t7-26" value="" style="endArrow=none;html=1;rounded=0;exitX=1;exitY=0.5;exitDx=0;exitDy=0;entryX=0;entryY=0.5;entryDx=0;entryDy=0;" edge="1" parent="1" source="rZ0ERCzyULRFONIbK_t7-1" target="rZ0ERCzyULRFONIbK_t7-29">
          <mxGeometry relative="1" as="geometry">
            <mxPoint x="370" y="50" as="sourcePoint" />
            <mxPoint x="393" y="139" as="targetPoint" />
          </mxGeometry>
        </mxCell>
        <mxCell id="rZ0ERCzyULRFONIbK_t7-27" value="(1,n)" style="text;html=1;align=center;verticalAlign=middle;resizable=0;points=[];autosize=1;strokeColor=none;fillColor=none;" vertex="1" parent="1">
          <mxGeometry x="305" y="108" width="50" height="30" as="geometry" />
        </mxCell>
        <mxCell id="rZ0ERCzyULRFONIbK_t7-28" value="ZAPOSLENI" style="whiteSpace=wrap;html=1;align=center;" vertex="1" parent="1">
          <mxGeometry x="370" y="-52" width="100" height="40" as="geometry" />
        </mxCell>
        <mxCell id="rZ0ERCzyULRFONIbK_t7-29" value="iznajmljivanje" style="shape=associativeEntity;whiteSpace=wrap;html=1;align=center;" vertex="1" parent="1">
          <mxGeometry x="380" y="120" width="80" height="40" as="geometry" />
        </mxCell>
        <mxCell id="rZ0ERCzyULRFONIbK_t7-30" value="" style="endArrow=none;html=1;rounded=0;exitX=0.5;exitY=1;exitDx=0;exitDy=0;entryX=0.5;entryY=0.211;entryDx=0;entryDy=0;entryPerimeter=0;" edge="1" parent="1" source="rZ0ERCzyULRFONIbK_t7-28" target="rZ0ERCzyULRFONIbK_t7-33">
          <mxGeometry relative="1" as="geometry">
            <mxPoint x="620" y="50" as="sourcePoint" />
            <mxPoint x="420" y="50" as="targetPoint" />
          </mxGeometry>
        </mxCell>
        <mxCell id="rZ0ERCzyULRFONIbK_t7-31" value="(0,n)" style="text;html=1;align=center;verticalAlign=middle;resizable=0;points=[];autosize=1;strokeColor=none;fillColor=none;" vertex="1" parent="1">
          <mxGeometry x="380" y="-12" width="50" height="30" as="geometry" />
        </mxCell>
        <mxCell id="rZ0ERCzyULRFONIbK_t7-32" value="(1,1)" style="text;html=1;align=center;verticalAlign=middle;resizable=0;points=[];autosize=1;strokeColor=none;fillColor=none;" vertex="1" parent="1">
          <mxGeometry x="375" y="95" width="50" height="30" as="geometry" />
        </mxCell>
        <mxCell id="rZ0ERCzyULRFONIbK_t7-33" value="ima" style="shape=rhombus;perimeter=rhombusPerimeter;whiteSpace=wrap;html=1;align=center;" vertex="1" parent="1">
          <mxGeometry x="395" y="36" width="50" height="38" as="geometry" />
        </mxCell>
        <mxCell id="rZ0ERCzyULRFONIbK_t7-34" value="" style="endArrow=none;html=1;rounded=0;entryX=0.5;entryY=0;entryDx=0;entryDy=0;exitX=0.5;exitY=1;exitDx=0;exitDy=0;" edge="1" parent="1" source="rZ0ERCzyULRFONIbK_t7-33" target="rZ0ERCzyULRFONIbK_t7-29">
          <mxGeometry relative="1" as="geometry">
            <mxPoint x="620" y="50" as="sourcePoint" />
            <mxPoint x="780" y="50" as="targetPoint" />
          </mxGeometry>
        </mxCell>
        <mxCell id="rZ0ERCzyULRFONIbK_t7-35" value="(0,n)" style="text;html=1;align=center;verticalAlign=middle;resizable=0;points=[];autosize=1;strokeColor=none;fillColor=none;" vertex="1" parent="1">
          <mxGeometry x="505" y="108" width="50" height="30" as="geometry" />
        </mxCell>
        <mxCell id="rZ0ERCzyULRFONIbK_t7-36" value="email" style="ellipse;whiteSpace=wrap;html=1;align=center;" vertex="1" parent="1">
          <mxGeometry x="90" y="140" width="60" height="30" as="geometry" />
        </mxCell>
        <mxCell id="rZ0ERCzyULRFONIbK_t7-37" value="prezime" style="ellipse;whiteSpace=wrap;html=1;align=center;" vertex="1" parent="1">
          <mxGeometry x="80" y="97" width="60" height="33" as="geometry" />
        </mxCell>
        <mxCell id="rZ0ERCzyULRFONIbK_t7-38" value="ime" style="ellipse;whiteSpace=wrap;html=1;align=center;" vertex="1" parent="1">
          <mxGeometry x="120" y="60" width="50" height="30" as="geometry" />
        </mxCell>
        <mxCell id="rZ0ERCzyULRFONIbK_t7-40" value="" style="endArrow=none;html=1;rounded=0;entryX=0;entryY=1;entryDx=0;entryDy=0;exitX=1;exitY=0.5;exitDx=0;exitDy=0;" edge="1" parent="1" source="rZ0ERCzyULRFONIbK_t7-36" target="rZ0ERCzyULRFONIbK_t7-1">
          <mxGeometry relative="1" as="geometry">
            <mxPoint x="400" y="50" as="sourcePoint" />
            <mxPoint x="560" y="50" as="targetPoint" />
          </mxGeometry>
        </mxCell>
        <mxCell id="rZ0ERCzyULRFONIbK_t7-41" value="" style="endArrow=none;html=1;rounded=0;entryX=0;entryY=0.5;entryDx=0;entryDy=0;exitX=1;exitY=0.5;exitDx=0;exitDy=0;" edge="1" parent="1" source="rZ0ERCzyULRFONIbK_t7-37" target="rZ0ERCzyULRFONIbK_t7-1">
          <mxGeometry relative="1" as="geometry">
            <mxPoint x="400" y="50" as="sourcePoint" />
            <mxPoint x="560" y="50" as="targetPoint" />
          </mxGeometry>
        </mxCell>
        <mxCell id="rZ0ERCzyULRFONIbK_t7-42" value="" style="endArrow=none;html=1;rounded=0;entryX=0;entryY=0;entryDx=0;entryDy=0;exitX=1;exitY=1;exitDx=0;exitDy=0;" edge="1" parent="1" source="rZ0ERCzyULRFONIbK_t7-38" target="rZ0ERCzyULRFONIbK_t7-1">
          <mxGeometry relative="1" as="geometry">
            <mxPoint x="400" y="50" as="sourcePoint" />
            <mxPoint x="560" y="50" as="targetPoint" />
          </mxGeometry>
        </mxCell>
        <mxCell id="rZ0ERCzyULRFONIbK_t7-43" value="id" style="ellipse;whiteSpace=wrap;html=1;align=center;fontStyle=4;" vertex="1" parent="1">
          <mxGeometry x="170" y="44" width="60" height="30" as="geometry" />
        </mxCell>
        <mxCell id="rZ0ERCzyULRFONIbK_t7-44" value="" style="endArrow=none;html=1;rounded=0;entryX=0.25;entryY=0;entryDx=0;entryDy=0;exitX=0.5;exitY=1;exitDx=0;exitDy=0;" edge="1" parent="1" source="rZ0ERCzyULRFONIbK_t7-43" target="rZ0ERCzyULRFONIbK_t7-1">
          <mxGeometry relative="1" as="geometry">
            <mxPoint x="400" y="50" as="sourcePoint" />
            <mxPoint x="560" y="50" as="targetPoint" />
          </mxGeometry>
        </mxCell>
        <mxCell id="rZ0ERCzyULRFONIbK_t7-45" value="datum_clanstva" style="ellipse;whiteSpace=wrap;html=1;align=center;" vertex="1" parent="1">
          <mxGeometry x="80" y="180" width="90" height="30" as="geometry" />
        </mxCell>
        <mxCell id="rZ0ERCzyULRFONIbK_t7-46" value="" style="endArrow=none;html=1;rounded=0;exitX=1;exitY=0.5;exitDx=0;exitDy=0;entryX=0;entryY=1;entryDx=0;entryDy=0;" edge="1" parent="1" source="rZ0ERCzyULRFONIbK_t7-45" target="rZ0ERCzyULRFONIbK_t7-1">
          <mxGeometry relative="1" as="geometry">
            <mxPoint x="400" y="50" as="sourcePoint" />
            <mxPoint x="560" y="50" as="targetPoint" />
          </mxGeometry>
        </mxCell>
        <mxCell id="rZ0ERCzyULRFONIbK_t7-47" value="id" style="ellipse;whiteSpace=wrap;html=1;align=center;fontStyle=4;" vertex="1" parent="1">
          <mxGeometry x="530" y="60" width="40" height="28" as="geometry" />
        </mxCell>
        <mxCell id="rZ0ERCzyULRFONIbK_t7-48" value="" style="endArrow=none;html=1;rounded=0;entryX=0.25;entryY=0;entryDx=0;entryDy=0;exitX=1;exitY=1;exitDx=0;exitDy=0;" edge="1" parent="1" source="rZ0ERCzyULRFONIbK_t7-47" target="rZ0ERCzyULRFONIbK_t7-23">
          <mxGeometry relative="1" as="geometry">
            <mxPoint x="400" y="50" as="sourcePoint" />
            <mxPoint x="560" y="50" as="targetPoint" />
          </mxGeometry>
        </mxCell>
        <mxCell id="rZ0ERCzyULRFONIbK_t7-49" value="naslov" style="ellipse;whiteSpace=wrap;html=1;align=center;" vertex="1" parent="1">
          <mxGeometry x="495" y="170" width="60" height="35" as="geometry" />
        </mxCell>
        <mxCell id="rZ0ERCzyULRFONIbK_t7-50" value="" style="endArrow=none;html=1;rounded=0;entryX=1;entryY=0;entryDx=0;entryDy=0;exitX=0;exitY=1;exitDx=0;exitDy=0;" edge="1" parent="1" source="rZ0ERCzyULRFONIbK_t7-23" target="rZ0ERCzyULRFONIbK_t7-49">
          <mxGeometry relative="1" as="geometry">
            <mxPoint x="400" y="50" as="sourcePoint" />
            <mxPoint x="560" y="50" as="targetPoint" />
          </mxGeometry>
        </mxCell>
        <mxCell id="rZ0ERCzyULRFONIbK_t7-51" value="godina_izdanja" style="ellipse;whiteSpace=wrap;html=1;align=center;" vertex="1" parent="1">
          <mxGeometry x="660" y="190" width="80" height="30" as="geometry" />
        </mxCell>
        <mxCell id="rZ0ERCzyULRFONIbK_t7-52" value="" style="endArrow=none;html=1;rounded=0;entryX=0;entryY=0;entryDx=0;entryDy=0;exitX=1;exitY=1;exitDx=0;exitDy=0;" edge="1" parent="1" source="rZ0ERCzyULRFONIbK_t7-23" target="rZ0ERCzyULRFONIbK_t7-51">
          <mxGeometry relative="1" as="geometry">
            <mxPoint x="400" y="50" as="sourcePoint" />
            <mxPoint x="560" y="50" as="targetPoint" />
          </mxGeometry>
        </mxCell>
        <mxCell id="rZ0ERCzyULRFONIbK_t7-53" value="zemlja_porijekla" style="ellipse;whiteSpace=wrap;html=1;align=center;" vertex="1" parent="1">
          <mxGeometry x="665" y="400" width="95" height="30" as="geometry" />
        </mxCell>
        <mxCell id="rZ0ERCzyULRFONIbK_t7-54" value="id" style="ellipse;whiteSpace=wrap;html=1;align=center;fontStyle=4;" vertex="1" parent="1">
          <mxGeometry x="580" y="410" width="60" height="30" as="geometry" />
        </mxCell>
        <mxCell id="rZ0ERCzyULRFONIbK_t7-55" value="ime" style="ellipse;whiteSpace=wrap;html=1;align=center;" vertex="1" parent="1">
          <mxGeometry x="497.5" y="400" width="55" height="30" as="geometry" />
        </mxCell>
        <mxCell id="rZ0ERCzyULRFONIbK_t7-56" value="" style="endArrow=none;html=1;rounded=0;entryX=0.75;entryY=1;entryDx=0;entryDy=0;exitX=0.5;exitY=0;exitDx=0;exitDy=0;" edge="1" parent="1" source="rZ0ERCzyULRFONIbK_t7-53" target="rZ0ERCzyULRFONIbK_t7-3">
          <mxGeometry relative="1" as="geometry">
            <mxPoint x="650" y="430" as="sourcePoint" />
            <mxPoint x="810" y="430" as="targetPoint" />
          </mxGeometry>
        </mxCell>
        <mxCell id="rZ0ERCzyULRFONIbK_t7-57" value="" style="endArrow=none;html=1;rounded=0;entryX=0.5;entryY=1;entryDx=0;entryDy=0;exitX=0.5;exitY=0;exitDx=0;exitDy=0;" edge="1" parent="1" source="rZ0ERCzyULRFONIbK_t7-54" target="rZ0ERCzyULRFONIbK_t7-3">
          <mxGeometry relative="1" as="geometry">
            <mxPoint x="650" y="430" as="sourcePoint" />
            <mxPoint x="810" y="430" as="targetPoint" />
          </mxGeometry>
        </mxCell>
        <mxCell id="rZ0ERCzyULRFONIbK_t7-58" value="" style="endArrow=none;html=1;rounded=0;entryX=0;entryY=1;entryDx=0;entryDy=0;exitX=0.5;exitY=0;exitDx=0;exitDy=0;" edge="1" parent="1" source="rZ0ERCzyULRFONIbK_t7-55" target="rZ0ERCzyULRFONIbK_t7-3">
          <mxGeometry relative="1" as="geometry">
            <mxPoint x="650" y="430" as="sourcePoint" />
            <mxPoint x="810" y="430" as="targetPoint" />
          </mxGeometry>
        </mxCell>
        <mxCell id="rZ0ERCzyULRFONIbK_t7-59" value="id" style="ellipse;whiteSpace=wrap;html=1;align=center;fontStyle=4;" vertex="1" parent="1">
          <mxGeometry x="530" y="-110" width="50" height="30" as="geometry" />
        </mxCell>
        <mxCell id="rZ0ERCzyULRFONIbK_t7-60" value="prezime" style="ellipse;whiteSpace=wrap;html=1;align=center;" vertex="1" parent="1">
          <mxGeometry x="580" y="-130" width="60" height="30" as="geometry" />
        </mxCell>
        <mxCell id="rZ0ERCzyULRFONIbK_t7-61" value="ime" style="ellipse;whiteSpace=wrap;html=1;align=center;" vertex="1" parent="1">
          <mxGeometry x="645" y="-110" width="55" height="30" as="geometry" />
        </mxCell>
        <mxCell id="rZ0ERCzyULRFONIbK_t7-62" value="" style="endArrow=none;html=1;rounded=0;exitX=0.25;exitY=0;exitDx=0;exitDy=0;entryX=0.5;entryY=1;entryDx=0;entryDy=0;" edge="1" parent="1" source="rZ0ERCzyULRFONIbK_t7-5" target="rZ0ERCzyULRFONIbK_t7-59">
          <mxGeometry relative="1" as="geometry">
            <mxPoint x="480" y="-80" as="sourcePoint" />
            <mxPoint x="640" y="-80" as="targetPoint" />
          </mxGeometry>
        </mxCell>
        <mxCell id="rZ0ERCzyULRFONIbK_t7-63" value="" style="endArrow=none;html=1;rounded=0;entryX=0.5;entryY=1;entryDx=0;entryDy=0;exitX=0.5;exitY=0;exitDx=0;exitDy=0;" edge="1" parent="1" source="rZ0ERCzyULRFONIbK_t7-5" target="rZ0ERCzyULRFONIbK_t7-60">
          <mxGeometry relative="1" as="geometry">
            <mxPoint x="480" y="-80" as="sourcePoint" />
            <mxPoint x="640" y="-80" as="targetPoint" />
          </mxGeometry>
        </mxCell>
        <mxCell id="rZ0ERCzyULRFONIbK_t7-64" value="" style="endArrow=none;html=1;rounded=0;entryX=0.5;entryY=1;entryDx=0;entryDy=0;exitX=0.75;exitY=0;exitDx=0;exitDy=0;" edge="1" parent="1" source="rZ0ERCzyULRFONIbK_t7-5" target="rZ0ERCzyULRFONIbK_t7-61">
          <mxGeometry relative="1" as="geometry">
            <mxPoint x="480" y="-80" as="sourcePoint" />
            <mxPoint x="640" y="-80" as="targetPoint" />
          </mxGeometry>
        </mxCell>
        <mxCell id="rZ0ERCzyULRFONIbK_t7-65" value="id" style="ellipse;whiteSpace=wrap;html=1;align=center;fontStyle=4;" vertex="1" parent="1">
          <mxGeometry x="985" y="90" width="50" height="30" as="geometry" />
        </mxCell>
        <mxCell id="rZ0ERCzyULRFONIbK_t7-66" value="naziv" style="ellipse;whiteSpace=wrap;html=1;align=center;" vertex="1" parent="1">
          <mxGeometry x="980" y="135" width="60" height="35" as="geometry" />
        </mxCell>
        <mxCell id="rZ0ERCzyULRFONIbK_t7-67" value="" style="endArrow=none;html=1;rounded=0;entryX=0;entryY=0.5;entryDx=0;entryDy=0;exitX=1;exitY=0.75;exitDx=0;exitDy=0;" edge="1" parent="1" source="rZ0ERCzyULRFONIbK_t7-6" target="rZ0ERCzyULRFONIbK_t7-66">
          <mxGeometry relative="1" as="geometry">
            <mxPoint x="960" y="-80" as="sourcePoint" />
            <mxPoint x="1120" y="-80" as="targetPoint" />
          </mxGeometry>
        </mxCell>
        <mxCell id="rZ0ERCzyULRFONIbK_t7-68" value="" style="endArrow=none;html=1;rounded=0;entryX=1;entryY=0.25;entryDx=0;entryDy=0;exitX=0;exitY=0.5;exitDx=0;exitDy=0;" edge="1" parent="1" source="rZ0ERCzyULRFONIbK_t7-65" target="rZ0ERCzyULRFONIbK_t7-6">
          <mxGeometry relative="1" as="geometry">
            <mxPoint x="960" y="-80" as="sourcePoint" />
            <mxPoint x="1120" y="-80" as="targetPoint" />
          </mxGeometry>
        </mxCell>
        <mxCell id="rZ0ERCzyULRFONIbK_t7-69" value="datum_vracanja" style="ellipse;whiteSpace=wrap;html=1;align=center;" vertex="1" parent="1">
          <mxGeometry x="395" y="205" width="90" height="30" as="geometry" />
        </mxCell>
        <mxCell id="rZ0ERCzyULRFONIbK_t7-70" value="datum_izmajmljivanja" style="ellipse;whiteSpace=wrap;html=1;align=center;" vertex="1" parent="1">
          <mxGeometry x="260" y="200" width="110" height="30" as="geometry" />
        </mxCell>
        <mxCell id="rZ0ERCzyULRFONIbK_t7-71" value="" style="endArrow=none;html=1;rounded=0;entryX=0.5;entryY=0;entryDx=0;entryDy=0;exitX=0.75;exitY=1;exitDx=0;exitDy=0;" edge="1" parent="1" source="rZ0ERCzyULRFONIbK_t7-29" target="rZ0ERCzyULRFONIbK_t7-69">
          <mxGeometry relative="1" as="geometry">
            <mxPoint x="390" y="140" as="sourcePoint" />
            <mxPoint x="550" y="140" as="targetPoint" />
          </mxGeometry>
        </mxCell>
        <mxCell id="rZ0ERCzyULRFONIbK_t7-72" value="" style="endArrow=none;html=1;rounded=0;entryX=0.62;entryY=0.053;entryDx=0;entryDy=0;entryPerimeter=0;exitX=0.25;exitY=1;exitDx=0;exitDy=0;" edge="1" parent="1" source="rZ0ERCzyULRFONIbK_t7-29" target="rZ0ERCzyULRFONIbK_t7-70">
          <mxGeometry relative="1" as="geometry">
            <mxPoint x="390" y="140" as="sourcePoint" />
            <mxPoint x="550" y="140" as="targetPoint" />
          </mxGeometry>
        </mxCell>
        <mxCell id="rZ0ERCzyULRFONIbK_t7-73" value="id" style="ellipse;whiteSpace=wrap;html=1;align=center;fontStyle=4;" vertex="1" parent="1">
          <mxGeometry x="285" y="-60" width="60" height="30" as="geometry" />
        </mxCell>
        <mxCell id="rZ0ERCzyULRFONIbK_t7-75" value="ime" style="ellipse;whiteSpace=wrap;html=1;align=center;" vertex="1" parent="1">
          <mxGeometry x="320" y="-110" width="60" height="30" as="geometry" />
        </mxCell>
        <mxCell id="rZ0ERCzyULRFONIbK_t7-76" value="prezime" style="ellipse;whiteSpace=wrap;html=1;align=center;" vertex="1" parent="1">
          <mxGeometry x="390" y="-120" width="55" height="30" as="geometry" />
        </mxCell>
        <mxCell id="rZ0ERCzyULRFONIbK_t7-77" value="br_tel" style="ellipse;whiteSpace=wrap;html=1;align=center;" vertex="1" parent="1">
          <mxGeometry x="445" y="-100" width="70" height="30" as="geometry" />
        </mxCell>
        <mxCell id="rZ0ERCzyULRFONIbK_t7-78" value="" style="endArrow=none;html=1;rounded=0;exitX=0;exitY=1;exitDx=0;exitDy=0;entryX=0.75;entryY=0;entryDx=0;entryDy=0;" edge="1" parent="1" source="rZ0ERCzyULRFONIbK_t7-77" target="rZ0ERCzyULRFONIbK_t7-28">
          <mxGeometry relative="1" as="geometry">
            <mxPoint x="390" y="140" as="sourcePoint" />
            <mxPoint x="550" y="140" as="targetPoint" />
          </mxGeometry>
        </mxCell>
        <mxCell id="rZ0ERCzyULRFONIbK_t7-79" value="" style="endArrow=none;html=1;rounded=0;exitX=0.5;exitY=1;exitDx=0;exitDy=0;entryX=0.5;entryY=0;entryDx=0;entryDy=0;" edge="1" parent="1" source="rZ0ERCzyULRFONIbK_t7-76" target="rZ0ERCzyULRFONIbK_t7-28">
          <mxGeometry relative="1" as="geometry">
            <mxPoint x="390" y="140" as="sourcePoint" />
            <mxPoint x="550" y="140" as="targetPoint" />
          </mxGeometry>
        </mxCell>
        <mxCell id="rZ0ERCzyULRFONIbK_t7-80" value="" style="endArrow=none;html=1;rounded=0;exitX=1;exitY=1;exitDx=0;exitDy=0;entryX=0.25;entryY=0;entryDx=0;entryDy=0;" edge="1" parent="1" source="rZ0ERCzyULRFONIbK_t7-75" target="rZ0ERCzyULRFONIbK_t7-28">
          <mxGeometry relative="1" as="geometry">
            <mxPoint x="390" y="140" as="sourcePoint" />
            <mxPoint x="550" y="140" as="targetPoint" />
          </mxGeometry>
        </mxCell>
        <mxCell id="rZ0ERCzyULRFONIbK_t7-81" value="" style="endArrow=none;html=1;rounded=0;exitX=1;exitY=0.5;exitDx=0;exitDy=0;entryX=0;entryY=0.5;entryDx=0;entryDy=0;" edge="1" parent="1" source="rZ0ERCzyULRFONIbK_t7-73" target="rZ0ERCzyULRFONIbK_t7-28">
          <mxGeometry relative="1" as="geometry">
            <mxPoint x="390" y="140" as="sourcePoint" />
            <mxPoint x="550" y="140" as="targetPoint" />
          </mxGeometry>
        </mxCell>
      </root>
    </mxGraphModel>
  </diagram>
</mxfile>
